<svg width="22" height="22" viewBox="0 0 22 22" fill="none" xmlns="http://www.w3.org/2000/svg">
<path d="M21.2797 20.0891L16.0203 14.8297C15.9828 14.7922 15.9781 14.7313 16.0109 14.6891C16.5195 14.0586 16.9344 13.3648 17.2531 12.6148C17.7078 11.5367 17.9375 10.3953 17.9375 9.21875C17.9375 8.04219 17.7078 6.90078 17.2531 5.825C16.8125 4.78672 16.1844 3.85391 15.3828 3.05469C14.5812 2.25313 13.6508 1.625 12.6125 1.18672C11.5367 0.729688 10.3953 0.5 9.21875 0.5C8.04219 0.5 6.90078 0.729687 5.825 1.18437C4.78672 1.625 3.85391 2.25313 3.05469 3.05469C2.25312 3.85625 1.625 4.78672 1.18672 5.825C0.729688 6.90078 0.5 8.04219 0.5 9.21875C0.5 10.3953 0.729687 11.5367 1.18437 12.6125C1.625 13.6508 2.25312 14.5836 3.05469 15.3828C3.85625 16.1844 4.78672 16.8125 5.825 17.2508C6.90078 17.7078 8.04219 17.9375 9.21875 17.9375C10.3953 17.9375 11.5367 17.7078 12.6125 17.2531C13.3625 16.9367 14.0562 16.5195 14.6867 16.0109C14.7289 15.9758 14.7898 15.9805 14.8273 16.0203L20.0867 21.2797C20.3797 21.5727 20.8531 21.5727 21.1461 21.2797L21.2773 21.1484C21.5727 20.8555 21.5727 20.382 21.2797 20.0891ZM9.21875 16.25C5.34219 16.25 2.1875 13.0953 2.1875 9.21875C2.1875 5.34219 5.34219 2.1875 9.21875 2.1875C13.0953 2.1875 16.25 5.34219 16.25 9.21875C16.25 13.0953 13.0953 16.25 9.21875 16.25Z" fill="black"/>
</svg>
