<svg width="12" height="9" viewBox="0 0 12 9" fill="none" xmlns="http://www.w3.org/2000/svg">
<path d="M0.1104 1.09922C0.206162 0.8907 0.359701 0.714005 0.55282 0.59008C0.745939 0.466155 0.970539 0.400197 1.2 0.400024L10.8 0.400025C11.0295 0.399878 11.2543 0.465572 11.4477 0.589314C11.641 0.713056 11.7948 0.889653 11.8908 1.09816C11.9868 1.30667 12.021 1.53833 11.9893 1.76568C11.9576 1.99303 11.8614 2.20652 11.712 2.38082L6.912 7.98082C6.79934 8.11256 6.65949 8.21833 6.50205 8.29085C6.34461 8.36337 6.17333 8.40092 6 8.40092C5.82666 8.40092 5.65538 8.36337 5.49795 8.29085C5.34051 8.21833 5.20065 8.11256 5.088 7.98082L0.288 2.38082C0.139045 2.20649 0.0431546 1.99314 0.0116796 1.76601C-0.0197945 1.53888 0.0144634 1.30749 0.1104 1.09922ZM3.808 2.80002L6 5.35682L8.192 2.80002L3.808 2.80002Z" fill="#262627"/>
</svg>
